<svg width="20" height="20" viewBox="0 0 20 20" fill="none" xmlns="http://www.w3.org/2000/svg">
<path d="M1.93553 0C0.866152 0 0 0.866152 0 1.93553V15.4843C0 16.5537 0.866152 17.4198 1.93553 17.4198H10.2088C10.0956 17.1256 9.99591 16.8177 9.91583 16.4955C9.83575 16.1734 9.77405 15.837 9.73438 15.4843H1.93553V7.74214H15.4843H16.452H17.4198V1.93553C17.4198 0.866152 16.5537 0 15.4843 0H1.93553ZM1.93553 1.93553H15.4843V5.8066H1.93553V1.93553ZM3.87107 2.9033C3.6144 2.9033 3.36825 3.00526 3.18675 3.18675C3.00526 3.36825 2.9033 3.6144 2.9033 3.87107C2.9033 4.12774 3.00526 4.37389 3.18675 4.55538C3.36825 4.73687 3.6144 4.83884 3.87107 4.83884C4.12774 4.83884 4.37389 4.73687 4.55538 4.55538C4.73687 4.37389 4.83884 4.12774 4.83884 3.87107C4.83884 3.6144 4.73687 3.36825 4.55538 3.18675C4.37389 3.00526 4.12774 2.9033 3.87107 2.9033ZM6.77437 2.9033C6.5177 2.9033 6.27155 3.00526 6.09005 3.18675C5.90856 3.36825 5.8066 3.6144 5.8066 3.87107C5.8066 4.12774 5.90856 4.37389 6.09005 4.55538C6.27155 4.73687 6.5177 4.83884 6.77437 4.83884C7.03104 4.83884 7.27719 4.73687 7.45868 4.55538C7.64018 4.37389 7.74214 4.12774 7.74214 3.87107C7.74214 3.6144 7.64018 3.36825 7.45868 3.18675C7.27719 3.00526 7.03104 2.9033 6.77437 2.9033ZM9.67767 2.9033V4.83884H13.5487V2.9033H9.67767Z" fill="#005a92"/>
<path d="M14.4174 9.67761C14.2925 9.67761 14.188 9.77111 14.1735 9.89498L14.0601 10.8741C13.5917 11.0367 13.168 11.2844 12.8013 11.6018L11.894 11.2086C11.7798 11.1593 11.6478 11.2052 11.5859 11.3126L10.6786 12.8815C10.6167 12.9889 10.6451 13.1264 10.7448 13.2009L11.5254 13.7812C11.4789 14.0202 11.4517 14.2648 11.4517 14.5164C11.4517 14.7681 11.4789 15.0127 11.5254 15.2517L10.7448 15.832C10.6451 15.9065 10.6157 16.044 10.6786 16.1514L11.5859 17.7203C11.6478 17.8287 11.7798 17.8717 11.894 17.8224L12.8013 17.4311C13.168 17.7495 13.5917 17.9962 14.0601 18.1588L14.1735 19.1379C14.188 19.2618 14.2925 19.3553 14.4174 19.3553H16.2281C16.353 19.3553 16.4574 19.2618 16.472 19.1379L16.5854 18.1588C17.0538 17.9962 17.4774 17.7485 17.8442 17.4311L18.7515 17.8242C18.8657 17.8736 18.9977 17.8277 19.0596 17.7203L19.9669 16.1514C20.0288 16.0431 20.0004 15.9056 19.9007 15.832L19.1201 15.2517C19.1665 15.0127 19.1938 14.7681 19.1938 14.5164C19.1938 14.2648 19.1665 14.0202 19.1201 13.7812L19.9007 13.2009C20.0004 13.1264 20.0298 12.9889 19.9669 12.8815L19.0596 11.3126C18.9977 11.2052 18.8657 11.1593 18.7515 11.2086L17.8442 11.6018C17.4774 11.2844 17.0538 11.0367 16.5854 10.8741L16.472 9.89498C16.4574 9.77111 16.353 9.67761 16.2281 9.67761H14.4174ZM15.3227 12.5809C16.3912 12.5809 17.2583 13.4471 17.2583 14.5164C17.2583 15.5849 16.3912 16.452 15.3227 16.452C14.2543 16.452 13.3872 15.5849 13.3872 14.5164C13.3872 13.4471 14.2543 12.5809 15.3227 12.5809Z" fill="#005a92"/>
</svg>
